<?xml version="1.0" encoding="UTF-8"?> <svg xmlns="http://www.w3.org/2000/svg" width="165" height="55" viewBox="0 0 165 55" fill="none"><path d="M151.4 0H13.1C12.6 0 12.1 0 11.6 0C11.2 0 10.8 0 10.3 0C9.4 0 8.5 0.1 7.6 0.3C6.7 0.4 5.8 0.7 5 1.1C4.2 1.5 3.4 2.1 2.8 2.7C2.1 3.4 1.5 4.1 1.1 5C0.7 5.8 0.4 6.7 0.3 7.6C0.1 8.5 0 9.4 0 10.3C0 10.7 0 11.1 0 11.6V43.4C0 43.8 0 44.2 0 44.7C0 45.6 0.1 46.5 0.2 47.5C0.4 48.4 0.6 49.3 1.1 50.1C1.5 50.9 2.1 51.7 2.7 52.3C3.4 53 4.1 53.5 4.9 53.9C5.7 54.3 6.6 54.6 7.5 54.8C8.4 54.9 9.3 55 10.3 55C10.7 55 11.1 55 11.6 55C12.1 55 12.6 55 13.1 55H151.4C151.9 55 152.4 55 152.9 55C153.3 55 153.7 55 154.2 55C155.1 55 156 54.9 157 54.8C157.9 54.6 158.8 54.4 159.6 53.9C160.4 53.5 161.2 52.9 161.8 52.3C162.5 51.6 163 50.9 163.4 50.1C163.8 49.3 164.1 48.4 164.3 47.5C164.5 46.6 164.5 45.7 164.6 44.7C164.6 44.3 164.6 43.9 164.6 43.4C164.6 42.9 164.6 42.4 164.6 41.9V13.1C164.6 12.6 164.6 12.1 164.6 11.6C164.6 11.2 164.6 10.8 164.6 10.3C164.6 9.4 164.5 8.5 164.3 7.5C164.2 6.6 163.9 5.7 163.4 4.9C162.6 3.2 161.2 1.9 159.6 1.1C158.8 0.7 157.9 0.4 157 0.2C156 0.1 155.1 0 154.2 0C153.8 0 153.4 0 152.9 0C152.4 0 151.9 0 151.4 0Z" fill="#A6A6A6"></path><path d="M11.6 53.8C11.2 53.8 10.8 53.8 10.4 53.8C9.49999 53.8 8.69999 53.7 7.79999 53.6C6.99999 53.5 6.19999 53.2 5.49999 52.8C4.79999 52.4 4.09999 52 3.59999 51.4C2.99999 50.8 2.59999 50.2 2.19999 49.5C1.79999 48.8 1.59999 48 1.49999 47.2C1.39999 46.3 1.29999 45.5 1.29999 44.6C1.29999 44.3 1.29999 43.3 1.29999 43.3V11.6C1.29999 11.6 1.29999 10.6 1.29999 10.4C1.29999 9.50001 1.39999 8.70001 1.49999 7.80001C1.59999 7.00001 1.79999 6.20001 2.19999 5.50001C2.59999 4.80001 2.99999 4.20001 3.59999 3.60001C4.19999 3.00001 4.79999 2.60001 5.49999 2.20001C6.19999 1.80001 6.99999 1.60001 7.79999 1.40001C8.69999 1.30001 9.49999 1.20001 10.4 1.20001H11.6H152.9H154.2C155.1 1.20001 155.9 1.30001 156.8 1.40001C157.6 1.50001 158.4 1.80001 159.1 2.20001C160.5 2.90001 161.7 4.10001 162.4 5.50001C162.8 6.20001 163 7.00001 163.1 7.80001C163.2 8.70001 163.3 9.50001 163.3 10.4C163.3 10.8 163.3 11.2 163.3 11.6C163.3 12.1 163.3 12.6 163.3 13.1V41.9C163.3 42.4 163.3 42.9 163.3 43.4C163.3 43.8 163.3 44.3 163.3 44.7C163.3 45.6 163.2 46.4 163.1 47.2C163 48 162.7 48.8 162.4 49.5C162 50.2 161.6 50.8 161 51.4C160.4 52 159.8 52.4 159.1 52.8C158.4 53.2 157.6 53.4 156.8 53.6C156 53.7 155.1 53.8 154.2 53.8C153.8 53.8 153.4 53.8 153 53.8H151.5H11.6Z" fill="black"></path><path d="M34.1 27.9C34.1 25.6 35.4 23.4 37.3 22.2C36 20.4 34 19.3 31.8 19.2C29.5 19 27.3 20.6 26.1 20.6C24.9 20.6 23.1 19.2 21.1 19.3C18.5 19.4 16.2 20.8 14.9 23.1C12.2 27.7 14.2 34.5 16.8 38.2C18.1 40 19.6 42.1 21.5 42C23.4 41.9 24.1 40.8 26.4 40.8C28.7 40.8 29.3 42 31.3 42C33.3 42 34.6 40.2 35.9 38.3C36.8 37 37.5 35.6 38 34C35.6 32.9 34.1 30.6 34.1 27.9Z" fill="white"></path><path d="M30.3 16.8C31.4 15.5 32 13.7 31.8 12C30.1 12.2 28.5 13 27.4 14.3C26.3 15.6 25.7 17.2 25.8 18.9C27.6 18.9 29.2 18.1 30.3 16.8Z" fill="white"></path><path d="M58.2 37.3H51.7L50.1 41.9H47.3L53.5 24.8H56.4L62.6 41.9H59.8L58.2 37.3ZM52.3 35.2H57.5L55 27.7H54.9L52.3 35.2Z" fill="white"></path><path d="M75.8 35.7C75.8 39.6 73.7 42.1 70.6 42.1C69 42.2 67.5 41.3 66.7 39.9H66.6V46.1H64V29.5H66.5V31.6C67.3 30.2 68.8 29.3 70.5 29.4C73.8 29.4 75.8 31.9 75.8 35.7ZM73.2 35.7C73.2 33.2 71.9 31.5 69.9 31.5C67.9 31.5 66.6 33.2 66.6 35.7C66.6 38.2 67.9 39.9 69.9 39.9C71.9 39.9 73.2 38.3 73.2 35.7Z" fill="white"></path><path d="M89.5 35.7C89.5 39.6 87.4 42.1 84.3 42.1C82.7 42.2 81.2 41.3 80.4 39.9H80.3V46.1H77.7V29.5H80.2V31.6C81 30.2 82.5 29.3 84.2 29.4C87.5 29.4 89.5 31.9 89.5 35.7ZM86.9 35.7C86.9 33.2 85.6 31.5 83.6 31.5C81.6 31.5 80.3 33.2 80.3 35.7C80.3 38.2 81.6 39.9 83.6 39.9C85.6 39.9 86.9 38.3 86.9 35.7Z" fill="white"></path><path d="M98.6 37.2C98.8 38.9 100.4 40 102.7 40C104.9 40 106.4 38.9 106.4 37.4C106.4 36.1 105.5 35.3 103.3 34.7L101.1 34.2C98 33.4 96.5 32 96.5 29.6C96.5 26.7 99.1 24.6 102.7 24.6C106.3 24.6 108.8 26.6 108.9 29.6H106.3C106.1 27.9 104.7 26.9 102.7 26.9C100.7 26.9 99.2 27.9 99.2 29.5C99.2 30.7 100.1 31.4 102.3 32L104.2 32.5C107.7 33.3 109.2 34.7 109.2 37.2C109.2 40.4 106.7 42.4 102.6 42.4C98.8 42.4 96.3 40.4 96.1 37.4L98.6 37.2Z" fill="white"></path><path d="M114.6 26.5V29.4H117V31.4H114.6V38.3C114.6 39.4 115.1 39.9 116.1 39.9C116.4 39.9 116.7 39.9 116.9 39.8V41.8C116.4 41.9 116 41.9 115.5 41.9C113 41.9 112 41 112 38.5V31.4H110.2V29.4H112V26.5H114.6Z" fill="white"></path><path d="M118.3 35.7C118.3 31.8 120.6 29.3 124.2 29.3C127.8 29.3 130.1 31.8 130.1 35.7C130.1 39.6 127.8 42.1 124.2 42.1C120.6 42.1 118.3 39.6 118.3 35.7ZM127.5 35.7C127.5 33 126.3 31.4 124.2 31.4C122.1 31.4 120.9 33 120.9 35.7C120.9 38.4 122.1 40 124.2 40C126.3 40 127.5 38.4 127.5 35.7Z" fill="white"></path><path d="M132.3 29.5H134.7V31.6H134.8C135.1 30.2 136.4 29.3 137.8 29.4C138.1 29.4 138.4 29.4 138.7 29.5V31.9C138.3 31.8 137.9 31.7 137.6 31.7C136.2 31.6 135 32.7 134.9 34.2C134.9 34.3 134.9 34.5 134.9 34.6V42H132.3V29.5Z" fill="white"></path><path d="M150.4 38.3C150.1 40.6 147.9 42.1 145 42.1C141.4 42.1 139.1 39.7 139.1 35.8C139.1 31.9 141.4 29.4 144.9 29.4C148.3 29.4 150.5 31.8 150.5 35.5V36.4H141.7V36.6C141.5 38.4 142.9 40 144.6 40.1C144.7 40.1 144.9 40.1 145 40.1C146.2 40.2 147.4 39.5 147.9 38.3H150.4ZM141.8 34.6H148C148.1 32.9 146.8 31.5 145.2 31.4C145.1 31.4 145 31.4 145 31.4C143.2 31.4 141.8 32.8 141.8 34.6C141.8 34.6 141.8 34.5 141.8 34.6Z" fill="white"></path><path d="M48.7 16.1C48.7 13.4 50.1 11.8 52.4 11.8C54.1 11.7 55.6 13 55.8 14.6H54.5C54.3 13.6 53.4 12.9 52.4 12.9C50.9 12.9 50 14.1 50 16C50 17.9 50.9 19.1 52.4 19.1C53.4 19.2 54.3 18.5 54.5 17.6H55.8C55.5 19.3 54.1 20.4 52.4 20.3C50.1 20.4 48.7 18.8 48.7 16.1Z" fill="white"></path><path d="M57.2 17.1C57 15.5 58.2 14.1 59.8 13.9C61.4 13.7 62.8 14.9 63 16.5C63 16.7 63 16.9 63 17.1C63.2 18.7 62 20.1 60.4 20.3C58.8 20.5 57.4 19.3 57.2 17.7C57.2 17.5 57.2 17.3 57.2 17.1ZM61.8 17.1C61.8 15.8 61.2 15 60.1 15C59 15 58.4 15.8 58.4 17.1C58.4 18.5 59 19.2 60.1 19.2C61.2 19.2 61.8 18.5 61.8 17.1Z" fill="white"></path><path d="M64.7 14H65.9V15H66C66.3 14.3 67.1 13.8 67.8 13.9C68.9 13.8 69.9 14.6 70 15.8C70 15.9 70 16.1 70 16.2V20.2H68.8V16.5C68.8 15.5 68.4 15 67.5 15C66.7 15 66.1 15.6 66 16.4C66 16.5 66 16.5 66 16.6V20.2H64.8L64.7 14Z" fill="white"></path><path d="M74.1 13.9C75.5 13.9 76.4 14.5 76.5 15.6H75.3C75.2 15.1 74.7 14.9 74 14.9C73.3 14.9 72.8 15.2 72.8 15.7C72.8 16.1 73.1 16.3 73.8 16.5L74.8 16.7C76 17 76.5 17.5 76.5 18.4C76.5 19.6 75.4 20.3 73.9 20.3C72.4 20.3 71.5 19.6 71.4 18.5H72.6C72.8 19 73.4 19.4 73.9 19.3C74.7 19.3 75.2 19 75.2 18.5C75.2 18.1 74.9 17.9 74.3 17.7L73.2 17.4C72 17.1 71.5 16.6 71.5 15.7C71.7 14.7 72.7 13.9 74.1 13.9Z" fill="white"></path><path d="M78.2 13L79.6 11H81L79.4 13H78.2ZM78.3 14H79.5V20.2H78.3V14Z" fill="white"></path><path d="M81.4 20.8H82.7C82.8 21.2 83.3 21.5 84.1 21.5C85.1 21.5 85.7 21 85.7 20.2V19H85.6C85.2 19.7 84.5 20.1 83.7 20C82.1 20 81.1 18.8 81.1 16.9C81.1 15 82.1 13.8 83.7 13.8C84.5 13.8 85.3 14.2 85.6 14.9H85.7V13.9H87V20.1C87 21.5 85.9 22.4 84.1 22.4C82.6 22.6 81.6 21.9 81.4 20.8ZM85.8 17C85.8 15.8 85.2 15 84.1 15C83 15 82.5 15.8 82.5 17C82.5 18.2 83.1 19 84.1 19C85.1 19.1 85.8 18.3 85.8 17Z" fill="white"></path><path d="M94.1 20.2H93V19.2H92.9C92.6 19.9 91.8 20.4 91 20.3C89.9 20.4 88.9 19.5 88.9 18.4C88.9 18.3 88.9 18.1 88.9 18V14H90.1V17.7C90.1 18.7 90.5 19.2 91.4 19.2C92.2 19.3 92.9 18.7 92.9 17.9C92.9 17.8 92.9 17.7 92.9 17.6V14H94.1V20.2Z" fill="white"></path><path d="M101.3 18.5C101 19.7 99.8 20.4 98.6 20.3C97 20.3 95.8 19.1 95.7 17.6C95.7 17.4 95.7 17.3 95.7 17.1C95.5 15.5 96.6 14.1 98.2 13.9C98.3 13.9 98.5 13.9 98.6 13.9C100.3 13.9 101.4 15.1 101.4 17V17.4H97V17.5C96.9 18.4 97.6 19.2 98.5 19.3C98.6 19.3 98.6 19.3 98.7 19.3C99.3 19.4 99.9 19.1 100.2 18.5H101.3ZM97 16.5H100.1C100.2 15.7 99.5 15 98.7 14.9H98.6C97.8 14.9 97 15.6 97 16.5Z" fill="white"></path><path d="M103.1 11.6H104.3V20.2H103.1V11.6Z" fill="white"></path><path d="M106 17.1C105.8 15.5 107 14.1 108.6 13.9C110.2 13.7 111.6 14.9 111.8 16.5C111.8 16.7 111.8 16.9 111.8 17.1C112 18.7 110.8 20.1 109.2 20.3C107.6 20.5 106.2 19.3 106 17.7C106 17.5 106 17.3 106 17.1ZM110.6 17.1C110.6 15.8 110 15 108.9 15C107.8 15 107.2 15.8 107.2 17.1C107.2 18.5 107.8 19.2 108.9 19.2C110 19.2 110.6 18.5 110.6 17.1Z" fill="white"></path><path d="M122.1 18.5C121.8 19.7 120.6 20.4 119.4 20.3C117.8 20.3 116.6 19.1 116.5 17.6C116.5 17.4 116.5 17.3 116.5 17.1C116.3 15.5 117.4 14.1 119 13.9C119.1 13.9 119.3 13.9 119.4 13.9C121.1 13.9 122.2 15.1 122.2 17V17.4H117.8V17.5C117.7 18.4 118.4 19.2 119.3 19.3C119.4 19.3 119.4 19.3 119.5 19.3C120.1 19.4 120.7 19.1 121 18.5H122.1ZM117.8 16.5H120.9C121 15.7 120.3 15 119.5 14.9H119.4C118.5 14.9 117.8 15.6 117.8 16.5Z" fill="white"></path><path d="M123.8 14H125V15H125.1C125.4 14.3 126.2 13.8 126.9 13.9C128 13.8 129 14.6 129.1 15.8C129.1 15.9 129.1 16.1 129.1 16.2V20.2H127.9V16.5C127.9 15.5 127.5 15 126.6 15C125.8 15 125.2 15.6 125.1 16.4C125.1 16.5 125.1 16.5 125.1 16.6V20.2H123.9L123.8 14Z" fill="white"></path><path d="M139.5 18.5C139.2 19.7 138 20.4 136.8 20.3C135.2 20.3 134 19.1 133.9 17.6C133.9 17.4 133.9 17.3 133.9 17.1C133.7 15.5 134.8 14.1 136.4 13.9C136.5 13.9 136.7 13.9 136.8 13.9C138.5 13.9 139.6 15.1 139.6 17V17.4H135.2V17.5C135.1 18.4 135.8 19.2 136.7 19.3C136.8 19.3 136.8 19.3 136.9 19.3C137.5 19.4 138.1 19.1 138.4 18.5H139.5ZM135.2 16.5H138.3C138.4 15.7 137.7 15 136.9 14.9H136.8C136 14.9 135.3 15.6 135.2 16.5Z" fill="white"></path><path d="M141.3 11.6H142.5V20.2H141.3V11.6Z" fill="white"></path></svg> 