<?xml version="1.0" encoding="UTF-8"?> <svg xmlns="http://www.w3.org/2000/svg" width="186" height="55" viewBox="0 0 186 55" fill="none"><path d="M178.7 55H6.9C3.1 55 0 51.9 0 48.1V6.9C0 3.1 3.1 0 6.9 0H178.8C182.6 0 185.7 3.1 185.7 6.9V48.1C185.6 51.9 182.5 55 178.7 55Z" fill="black"></path><path d="M178.7 1.1C181.9 1.1 184.5 3.7 184.5 6.9V48.1C184.5 51.3 181.9 53.9 178.7 53.9H6.9C3.7 53.9 1.1 51.3 1.1 48.1V6.9C1.1 3.7 3.7 1.1 6.9 1.1H178.7V1.1ZM178.7 0H6.9C3.1 0 0 3.1 0 6.9V48.1C0 51.9 3.1 55 6.9 55H178.8C182.6 55 185.7 51.9 185.7 48.1V6.9C185.6 3.1 182.5 0 178.7 0Z" fill="#A6A6A6"></path><path d="M93.7 29.9C90.5 29.9 87.8 32.4 87.8 35.7C87.8 39.1 90.4 41.5 93.7 41.5C96.9 41.5 99.6 39 99.6 35.7C99.6 32.4 96.9 29.9 93.7 29.9ZM93.7 39.3C91.9 39.3 90.4 37.8 90.4 35.8C90.4 33.7 91.9 32.3 93.7 32.3C95.5 32.3 97 33.7 97 35.8C97 37.8 95.5 39.3 93.7 39.3ZM80.9 29.9C77.7 29.9 75 32.4 75 35.7C75 39.1 77.6 41.5 80.9 41.5C84.1 41.5 86.8 39 86.8 35.7C86.8 32.4 84.1 29.9 80.9 29.9ZM80.9 39.3C79.1 39.3 77.6 37.8 77.6 35.8C77.6 33.7 79.1 32.3 80.9 32.3C82.7 32.3 84.2 33.7 84.2 35.8C84.2 37.8 82.7 39.3 80.9 39.3ZM65.6 31.7V34.2H71.5C71.3 35.6 70.9 36.6 70.1 37.3C69.2 38.2 67.9 39.1 65.5 39.1C61.8 39.1 59 36.2 59 32.5C59 28.8 61.9 25.9 65.5 25.9C67.5 25.9 68.9 26.7 70 27.7L71.7 26C70.2 24.6 68.2 23.5 65.5 23.5C60.5 23.5 56.3 27.6 56.3 32.6C56.3 37.6 60.5 41.7 65.5 41.7C68.2 41.7 70.2 40.8 71.8 39.2C73.4 37.6 73.9 35.3 73.9 33.4C73.9 32.8 73.9 32.3 73.8 31.8H65.6V31.7ZM127.9 33.6C127.4 32.3 125.9 29.9 122.9 29.9C119.9 29.9 117.4 32.3 117.4 35.7C117.4 39 119.9 41.5 123.2 41.5C125.9 41.5 127.4 39.9 128.1 38.9L126.1 37.6C125.4 38.6 124.5 39.2 123.2 39.2C121.9 39.2 121 38.6 120.4 37.4L128.2 34.2L127.9 33.6ZM120 35.6C119.9 33.3 121.7 32.2 123.1 32.2C124.1 32.2 125 32.7 125.3 33.4L120 35.6ZM113.6 41.3H116.2V24.1H113.6V41.3ZM109.4 31.2C108.7 30.5 107.6 29.9 106.2 29.9C103.3 29.9 100.6 32.5 100.6 35.8C100.6 39.1 103.3 41.6 106.2 41.6C107.6 41.6 108.7 41 109.3 40.3H109.4V41.1C109.4 43.3 108.2 44.5 106.3 44.5C104.7 44.5 103.8 43.4 103.4 42.4L101.2 43.3C101.8 44.9 103.5 46.8 106.4 46.8C109.4 46.8 112 45 112 40.7V30.3H109.6V31.2H109.4ZM106.5 39.3C104.7 39.3 103.2 37.8 103.2 35.8C103.2 33.7 104.7 32.2 106.5 32.2C108.2 32.2 109.6 33.7 109.6 35.8C109.6 37.8 108.2 39.3 106.5 39.3ZM140 24.1H133.9V41.3H136.5V34.8H140.1C142.9 34.8 145.7 32.7 145.7 29.5C145.7 26.3 142.8 24.1 140 24.1ZM140 32.3H136.4V26.4H140C141.9 26.4 143 28 143 29.3C143.1 30.7 142 32.3 140 32.3ZM155.9 29.9C154 29.9 152.1 30.7 151.3 32.5L153.6 33.5C154.1 32.5 155 32.2 155.9 32.2C157.2 32.2 158.6 33 158.6 34.4V34.6C158.1 34.3 157.1 33.9 155.9 33.9C153.4 33.9 150.9 35.2 150.9 37.8C150.9 40.1 152.9 41.6 155.2 41.6C156.9 41.6 157.9 40.8 158.5 39.9H158.6V41.2H161.1V34.6C161.1 31.6 158.8 29.9 155.9 29.9ZM155.6 39.3C154.8 39.3 153.6 38.9 153.6 37.8C153.6 36.5 155.1 36 156.3 36C157.4 36 158 36.2 158.6 36.6C158.4 38.2 157.1 39.3 155.6 39.3ZM170.1 30.3L167.2 37.8H167.1L164 30.3H161.2L165.8 40.7L163.2 46.5H165.9L173 30.3H170.1V30.3ZM147 41.3H149.6V24.1H147V41.3Z" fill="white"></path><path d="M14.3 10.4C13.9 10.8 13.7 11.5 13.7 12.3V42.7C13.7 43.6 13.9 44.2 14.3 44.6L14.4 44.7L31.4 27.7V27.5V27.3L14.4 10.3L14.3 10.4Z" fill="url(#paint0_linear_3_425)"></path><path d="M37.2 33.4L31.5 27.7V27.5V27.3L37.2 21.6L37.3 21.7L44 25.5C45.9 26.6 45.9 28.4 44 29.5L37.3 33.3L37.2 33.4Z" fill="url(#paint1_linear_3_425)"></path><path d="M37.3 33.3L31.5 27.5L14.3 44.6C14.9 45.3 16 45.4 17.2 44.7L37.3 33.3Z" fill="url(#paint2_linear_3_425)"></path><path d="M37.3 21.7L17.2 10.3C16 9.6 15 9.7 14.3 10.4L31.4 27.5L37.3 21.7Z" fill="url(#paint3_linear_3_425)"></path><path opacity="0.2" d="M37.2 33.2L17.2 44.5C16.1 45.1 15.1 45.1 14.4 44.5L14.3 44.6L14.4 44.7C15 45.3 16 45.3 17.2 44.7L37.3 33.3L37.2 33.2Z" fill="black"></path><path opacity="0.12" d="M14.3 44.4C13.9 44 13.7 43.3 13.7 42.5V42.7C13.7 43.6 13.9 44.2 14.3 44.6L14.4 44.5L14.3 44.4Z" fill="black"></path><path opacity="0.12" d="M44 29.3L37.1 33.2L37.2 33.3L43.9 29.5C44.9 29 45.3 28.2 45.3 27.5C45.4 28.2 44.9 28.8 44 29.3Z" fill="black"></path><path opacity="0.25" d="M17.2 10.5L44 25.7C44.9 26.2 45.4 26.8 45.4 27.5C45.4 26.8 44.9 26.1 44 25.5L17.2 10.3C15.3 9.19998 13.7 10.1 13.7 12.3V12.5C13.7 10.3 15.3 9.39998 17.2 10.5Z" fill="white"></path><path d="M56.8 17.9V9.59998H59.3C60.6 9.59998 61.6 9.99998 62.3 10.7C63.1 11.5 63.4 12.5 63.4 13.7C63.4 14.9 63 15.9 62.3 16.7C61.5 17.5 60.5 17.8 59.3 17.8H56.8V17.9ZM57.8 16.9H59.3C60.3 16.9 61 16.6 61.6 16.1C62.2 15.6 62.4 14.8 62.4 13.8C62.4 12.8 62.1 12.1 61.6 11.5C61 11 60.3 10.7 59.3 10.7H57.8V16.9Z" fill="white" stroke="white" stroke-width="0.2" stroke-miterlimit="10"></path><path d="M65 17.9V9.59998H66V17.8H65V17.9Z" fill="white" stroke="white" stroke-width="0.2" stroke-miterlimit="10"></path><path d="M70.2 18.1C69.6 18.1 69 17.9 68.4 17.5C67.8 17.1 67.5 16.6 67.3 15.9L68.3 15.5C68.4 16 68.7 16.3 69 16.6C69.4 16.9 69.8 17.1 70.2 17.1C70.7 17.1 71.1 17 71.4 16.7C71.7 16.5 71.9 16.1 71.9 15.7C71.9 15.2 71.7 14.9 71.4 14.6C71.1 14.4 70.6 14.1 69.9 13.9C69.2 13.7 68.6 13.4 68.2 13C67.8 12.6 67.6 12.2 67.6 11.6C67.6 11 67.8 10.5 68.3 10.1C68.8 9.69996 69.4 9.39996 70.1 9.39996C70.8 9.39996 71.4 9.59996 71.8 9.89996C72.2 10.2 72.5 10.6 72.7 11L71.7 11.4C71.6 11.1 71.5 10.9 71.2 10.7C70.9 10.5 70.6 10.4 70.1 10.4C69.7 10.4 69.3 10.5 69.1 10.7C68.8 10.9 68.7 11.2 68.7 11.5C68.7 11.8 68.8 12.1 69.1 12.3C69.4 12.5 69.8 12.7 70.3 12.9C70.7 13 71 13.2 71.3 13.3C71.6 13.4 71.8 13.6 72.1 13.8C72.4 14 72.6 14.3 72.7 14.6C72.8 14.9 72.9 15.3 72.9 15.7C72.9 16.1 72.8 16.5 72.7 16.8C72.5 17.1 72.3 17.4 72 17.5C71.7 17.7 71.4 17.8 71.1 17.9C70.9 18 70.6 18.1 70.2 18.1Z" fill="white" stroke="white" stroke-width="0.2" stroke-miterlimit="10"></path><path d="M75.6 17.9H74.5V9.59998H77.3C78 9.59998 78.6 9.79998 79.1 10.3C79.6 10.8 79.9 11.4 79.9 12.1C79.9 12.8 79.6 13.4 79.1 13.9C78.6 14.4 78 14.6 77.3 14.6H75.5V17.9H75.6ZM75.6 13.5H77.4C77.8 13.5 78.2 13.4 78.5 13.1C78.8 12.8 78.9 12.5 78.9 12.1C78.9 11.7 78.8 11.4 78.5 11.1C78.2 10.8 77.9 10.7 77.4 10.7H75.6V13.5Z" fill="white" stroke="white" stroke-width="0.2" stroke-miterlimit="10"></path><path d="M88 16.8C87.2 17.6 86.2 18.1 85 18.1C83.8 18.1 82.8 17.7 82 16.8C81.2 16 80.8 14.9 80.8 13.7C80.8 12.5 81.2 11.5 82 10.6C82.8 9.79999 83.8 9.29999 85 9.29999C86.2 9.29999 87.2 9.69999 88 10.6C88.8 11.4 89.2 12.5 89.2 13.7C89.2 15 88.8 16 88 16.8ZM82.7 16.1C83.3 16.7 84.1 17 84.9 17C85.8 17 86.5 16.7 87.1 16.1C87.7 15.5 88 14.7 88 13.7C88 12.7 87.7 12 87.1 11.3C86.5 10.7 85.7 10.4 84.9 10.4C84 10.4 83.3 10.7 82.7 11.3C82.1 11.9 81.8 12.7 81.8 13.7C81.8 14.7 82.1 15.5 82.7 16.1Z" fill="white" stroke="white" stroke-width="0.2" stroke-miterlimit="10"></path><path d="M90.7 17.9V9.59998H92L96 16V14.4V9.59998H97V17.8H95.9L91.7 11.1V12.7V17.8H90.7V17.9Z" fill="white" stroke="white" stroke-width="0.2" stroke-miterlimit="10"></path><path d="M98.9 17.9V9.59998H100V17.8H98.9V17.9Z" fill="white" stroke="white" stroke-width="0.2" stroke-miterlimit="10"></path><path d="M101.9 17.9V9.59998H104.9C105.5 9.59998 106.1 9.79998 106.6 10.2C107.1 10.6 107.3 11.2 107.3 11.8C107.3 12.2 107.2 12.5 107 12.8C106.8 13.1 106.5 13.3 106.2 13.5C106.6 13.6 106.9 13.9 107.2 14.2C107.5 14.5 107.6 14.9 107.6 15.4C107.6 16.1 107.4 16.6 106.9 17.1C106.4 17.5 105.8 17.8 105.1 17.8H101.9V17.9ZM102.9 13.2H104.8C105.2 13.2 105.5 13.1 105.8 12.8C106 12.5 106.2 12.2 106.2 11.9C106.2 11.6 106.1 11.3 105.8 11C105.6 10.7 105.3 10.6 104.9 10.6H102.9V13.2ZM102.9 16.9H105C105.4 16.9 105.7 16.8 106 16.5C106.3 16.2 106.4 15.9 106.4 15.6C106.4 15.3 106.3 15 106 14.7C105.7 14.4 105.4 14.3 105 14.3H102.9V16.9Z" fill="white" stroke="white" stroke-width="0.2" stroke-miterlimit="10"></path><path d="M109 17.9V9.59998H110.1V16.8H113.7V17.8H109V17.9Z" fill="white" stroke="white" stroke-width="0.2" stroke-miterlimit="10"></path><path d="M119.7 10.6H116V13.2H119.4V14.2H116V16.8H119.8V17.8H115V9.59998H119.8V10.6H119.7Z" fill="white" stroke="white" stroke-width="0.2" stroke-miterlimit="10"></path><path d="M129 10.6H125.2V13.2H128.6V14.2H125.2V16.8H129V17.8H124.2V9.59998H129V10.6Z" fill="white" stroke="white" stroke-width="0.2" stroke-miterlimit="10"></path><path d="M130.6 17.9V9.59998H131.9L135.9 16V14.4V9.59998H137V17.8H135.9L131.7 11.1V12.7V17.8H130.6V17.9Z" fill="white" stroke="white" stroke-width="0.2" stroke-miterlimit="10"></path><defs><linearGradient id="paint0_linear_3_425" x1="29.9744" y1="11.9759" x2="6.89871" y2="35.0516" gradientUnits="userSpaceOnUse"><stop stop-color="#00A0FF"></stop><stop offset="0.00657445" stop-color="#00A1FF"></stop><stop offset="0.2601" stop-color="#00BEFF"></stop><stop offset="0.5122" stop-color="#00D2FF"></stop><stop offset="0.7604" stop-color="#00DFFF"></stop><stop offset="1" stop-color="#00E3FF"></stop></linearGradient><linearGradient id="paint1_linear_3_425" x1="46.5219" y1="27.502" x2="13.2513" y2="27.502" gradientUnits="userSpaceOnUse"><stop stop-color="#FFE000"></stop><stop offset="0.4087" stop-color="#FFBD00"></stop><stop offset="0.7754" stop-color="#FFA500"></stop><stop offset="1" stop-color="#FF9C00"></stop></linearGradient><linearGradient id="paint2_linear_3_425" x1="34.1367" y1="30.6571" x2="2.84432" y2="61.9496" gradientUnits="userSpaceOnUse"><stop stop-color="#FF3A44"></stop><stop offset="1" stop-color="#C31162"></stop></linearGradient><linearGradient id="paint3_linear_3_425" x1="10.0336" y1="0.242397" x2="24.007" y2="14.2158" gradientUnits="userSpaceOnUse"><stop stop-color="#32A071"></stop><stop offset="0.0685" stop-color="#2DA771"></stop><stop offset="0.4762" stop-color="#15CF74"></stop><stop offset="0.8009" stop-color="#06E775"></stop><stop offset="1" stop-color="#00F076"></stop></linearGradient></defs></svg> 